<svg class="animated" id="freepik_stories-mobile-login" xmlns="http://www.w3.org/2000/svg" viewBox="0 0 500 500" version="1.1" xmlns:xlink="http://www.w3.org/1999/xlink" xmlns:svgjs="http://svgjs.com/svgjs"><style>svg#freepik_stories-mobile-login:not(.animated) .animable {opacity: 0;}svg#freepik_stories-mobile-login.animated #freepik--Padlock--inject-84 {animation: 1.5s Infinite  linear floating;animation-delay: 0s;}            @keyframes floating {                0% {                    opacity: 1;                    transform: translateY(0px);                }                50% {                    transform: translateY(-10px);                }                100% {                    opacity: 1;                    transform: translateY(0px);                }            }        </style><g id="freepik--background-complete--inject-84" style="transform-origin: 253.285011px 218.165005px;" class="animable"><path d="M466.89,316.2H303V221.36H466.89ZM304,315.2H465.89V222.36H304Z" style="fill: rgb(224, 224, 224); transform-origin: 384.945007px 268.780006px;" id="eldj068gogyh" class="animable"></path><rect x="324.95" y="271.93" width="108.13" height="3.17" style="fill: rgb(240, 240, 240); transform-origin: 379.015px 273.515px;" id="elj30n76d5knf" class="animable"></rect><rect x="324.95" y="283.75" width="115.58" height="3.46" style="fill: rgb(240, 240, 240); transform-origin: 382.74px 285.48px;" id="elajdyps5zsfv" class="animable"></rect><rect x="324.95" y="295.71" width="115.58" height="3.46" style="fill: rgb(240, 240, 240); transform-origin: 382.74px 297.44px;" id="elvmjt72v64p" class="animable"></rect><rect x="324.95" y="254.76" width="37.79" height="8.23" style="fill: rgb(240, 240, 240); transform-origin: 343.845px 258.875px;" id="elivah3b8s1rg" class="animable"></rect><rect x="303.53" y="221.86" width="162.86" height="15.1" style="fill: rgb(224, 224, 224); transform-origin: 384.96px 229.41px;" id="elvm8g6hbu3nr" class="animable"></rect><path d="M453.86,234.7c-.21-.2,1.89-2.73,4.68-5.65s5.24-5.13,5.44-4.94-1.89,2.73-4.68,5.66S454.06,234.9,453.86,234.7Z" style="fill: rgb(255, 255, 255); transform-origin: 458.919373px 229.405609px;" id="elhyremqezg4r" class="animable"></path><path d="M464,234.7c-.2.2-2.64-2-5.44-4.93s-4.89-5.46-4.68-5.66,2.64,2,5.44,4.94S464.19,234.5,464,234.7Z" style="fill: rgb(255, 255, 255); transform-origin: 458.938782px 229.404999px;" id="elkn5g5tf33f" class="animable"></path><rect x="102.36" y="34.05" width="162.86" height="93.85" style="fill: rgb(230, 230, 230); transform-origin: 183.79px 80.975px;" id="el3yxfnuxqlvb" class="animable"></rect><rect x="123.79" y="84.13" width="108.13" height="3.17" style="fill: rgb(240, 240, 240); transform-origin: 177.855px 85.715px;" id="el5hwtxxws2qm" class="animable"></rect><rect x="123.79" y="95.95" width="115.58" height="3.46" style="fill: rgb(240, 240, 240); transform-origin: 181.58px 97.68px;" id="eleaquik8v6b" class="animable"></rect><rect x="123.79" y="107.91" width="115.58" height="3.46" style="fill: rgb(240, 240, 240); transform-origin: 181.58px 109.64px;" id="elhrai12ek0xk" class="animable"></rect><rect x="123.79" y="66.96" width="37.79" height="8.23" style="fill: rgb(240, 240, 240); transform-origin: 142.685px 71.075px;" id="elwdtrriqwoxq" class="animable"></rect><rect x="102.36" y="34.05" width="162.86" height="15.1" style="fill: rgb(224, 224, 224); transform-origin: 183.79px 41.6px;" id="eldld6zhp0my" class="animable"></rect><path d="M252.14,46.82c-.21-.19,1.89-2.73,4.68-5.65s5.24-5.13,5.44-4.93-1.89,2.73-4.68,5.65S252.34,47,252.14,46.82Z" style="fill: rgb(255, 255, 255); transform-origin: 257.199379px 41.528885px;" id="el7auwhnwcrd" class="animable"></path><path d="M262.26,46.82c-.2.2-2.64-2-5.44-4.93s-4.89-5.45-4.68-5.65,2.64,2,5.44,4.93S262.47,46.63,262.26,46.82Z" style="fill: rgb(255, 255, 255); transform-origin: 257.200012px 41.529999px;" id="elfeb5a0713vp" class="animable"></path><path d="M203.54,208.39H39.68V113.54H203.54Zm-162.86-1H202.54V114.54H40.68Z" style="fill: rgb(224, 224, 224); transform-origin: 121.609993px 160.965px;" id="elwwvcjo4h3ji" class="animable"></path><rect x="61.61" y="164.12" width="108.13" height="3.17" style="fill: rgb(240, 240, 240); transform-origin: 115.675px 165.705px;" id="elil24t1yabi" class="animable"></rect><rect x="61.61" y="175.94" width="115.58" height="3.46" style="fill: rgb(240, 240, 240); transform-origin: 119.4px 177.67px;" id="elc4nw0j4396k" class="animable"></rect><rect x="61.61" y="187.9" width="115.58" height="3.46" style="fill: rgb(240, 240, 240); transform-origin: 119.4px 189.63px;" id="el7hbo8ub5xx3" class="animable"></rect><rect x="61.61" y="146.95" width="37.79" height="8.23" style="fill: rgb(240, 240, 240); transform-origin: 80.505px 151.065px;" id="elq14yyojj5j" class="animable"></rect><rect x="40.18" y="114.04" width="162.86" height="15.1" style="fill: rgb(224, 224, 224); transform-origin: 121.61px 121.59px;" id="elgiwm676xy3r" class="animable"></rect><rect x="200.35" y="230.12" width="192.3" height="172.16" style="fill: rgb(230, 230, 230); transform-origin: 296.5px 316.2px;" id="eldmf1t3wp8ae" class="animable"></rect><rect x="59.38" y="175.89" width="150.64" height="156.51" style="fill: rgb(240, 240, 240); transform-origin: 134.7px 254.145px;" id="elc1ijt36rtiu" class="animable"></rect><rect x="59.38" y="175.89" width="150.64" height="17.05" style="fill: rgb(224, 224, 224); transform-origin: 134.7px 184.415px;" id="eljbn4ggtt3q" class="animable"></rect><path d="M71.82,184.24a3.16,3.16,0,1,1-3.16-3.3A3.24,3.24,0,0,1,71.82,184.24Z" style="fill: rgb(255, 255, 255); transform-origin: 68.661842px 184.100014px;" id="elr49n5yla3fl" class="animable"></path><path d="M84.65,184.24a3.17,3.17,0,1,1-3.16-3.3A3.24,3.24,0,0,1,84.65,184.24Z" style="fill: rgb(255, 255, 255); transform-origin: 81.481628px 184.110001px;" id="el4pa5a5oq12p" class="animable"></path><path d="M97.48,184.24a3.17,3.17,0,1,1-3.16-3.3A3.24,3.24,0,0,1,97.48,184.24Z" style="fill: rgb(255, 255, 255); transform-origin: 94.31163px 184.110001px;" id="elzrw1taq9x9s" class="animable"></path><rect x="253.08" y="68.28" width="192.3" height="191.66" style="fill: rgb(240, 240, 240); transform-origin: 349.23px 164.11px;" id="elqcj6qsfr3yb" class="animable"></rect><rect x="253.08" y="68.28" width="192.3" height="22.45" style="fill: rgb(224, 224, 224); transform-origin: 349.23px 79.505px;" id="el555i111k1b2" class="animable"></rect><path d="M269.46,79.28a4.17,4.17,0,1,1-4.17-4.35A4.27,4.27,0,0,1,269.46,79.28Z" style="fill: rgb(255, 255, 255); transform-origin: 265.292343px 79.100006px;" id="el27o6ai6xhf7" class="animable"></path><path d="M285.13,76.34a4.17,4.17,0,1,1-6-.14A4.25,4.25,0,0,1,285.13,76.34Z" style="fill: rgb(255, 255, 255); transform-origin: 282.0625px 79.181744px;" id="eluyugn9ndwzb" class="animable"></path><path d="M303.24,79.28a4.17,4.17,0,1,1-4.17-4.35A4.27,4.27,0,0,1,303.24,79.28Z" style="fill: rgb(255, 255, 255); transform-origin: 299.072357px 79.10001px;" id="elohmccskifvd" class="animable"></path></g><g id="freepik--Floor--inject-84" style="transform-origin: 248.75499px 453.130005px;" class="animable"><path d="M403.84,453.13c0,.14-69.44.26-155.07.26s-155.1-.12-155.1-.26,69.43-.26,155.1-.26S403.84,453,403.84,453.13Z" style="fill: rgb(38, 50, 56); transform-origin: 248.75499px 453.130005px;" id="elje585qaiiad" class="animable"></path></g><g id="freepik--Plant--inject-84" style="transform-origin: 359.318176px 295.666908px;" class="animable"><path d="M336.18,330.71c-15.45-10.79-18.95-30.82-18.34-48.83.1-3-.23-6.18,1.2-8.81s4.77-4.44,7.46-3.18c2.23,1.05,3.2,3.65,4.45,5.8a17.56,17.56,0,0,0,7.05,6.73c1.91,1,4.28,1.6,6.17.56,2.6-1.43,2.9-5,2.88-8q0-8.37-.1-16.72a27.83,27.83,0,0,1,.9-8.88c.93-2.84,3-5.47,5.83-6.27s6.36.85,7,3.77a28.8,28.8,0,0,1,.09,3.72c.08,1.25.66,2.62,1.83,3s2.39-.49,3.29-1.37c3.08-3,5.18-6.91,7.13-10.77s3.86-7.83,6.66-11.12,6.67-5.9,11-6.15,8.84,2.41,9.92,6.61-1.37,8.49-4,11.9a66.87,66.87,0,0,1-13.89,13.25,5.44,5.44,0,0,0-2.33,2.49c-.65,2,1.24,4,3.21,4.63,2.23.74,4.65.51,7,.79s4.85,1.3,5.74,3.5c1.22,3.06-1.34,6.26-3.85,8.36a57.38,57.38,0,0,1-16.92,9.77c-2.2.8-4.51,1.51-6.29,3.05s-2.84,4.23-1.77,6.34,3.82,2.78,6.13,2.35,4.36-1.67,6.56-2.5c4.11-1.55,9.41-1.27,12,2.28a9.46,9.46,0,0,1,1,8.37,21.83,21.83,0,0,1-4.53,7.39A57.63,57.63,0,0,1,364,330c-9.53,3.3-18.36,4.2-27.83.73" style="fill: rgb(31, 198, 79); transform-origin: 359.318176px 278.556953px;" id="elhzpeft2exc4" class="animable"></path><path d="M396.2,226.66s-.09.1-.29.28l-.89.79c-.78.7-1.93,1.72-3.38,3.07a111.61,111.61,0,0,0-11.42,12.33c-2.23,2.77-4.54,5.91-7,9.32s-5,7.09-7.52,11a135.66,135.66,0,0,0-7.37,12.78c-1.16,2.29-2.18,4.68-3.23,7.12L352,290.8a274.85,274.85,0,0,0-10.66,28.77,134,134,0,0,0-5,24.53,97.54,97.54,0,0,0-.28,16.89c.16,2,.31,3.53.45,4.57.06.5.1.9.14,1.19l0,.41a2.09,2.09,0,0,1-.09-.4c-.05-.29-.11-.68-.19-1.18-.18-1-.37-2.58-.55-4.58a92.93,92.93,0,0,1,.1-16.94,131.81,131.81,0,0,1,4.89-24.64,268.42,268.42,0,0,1,10.63-28.84l3.18-7.42c1.05-2.43,2.08-4.84,3.25-7.14a133.92,133.92,0,0,1,7.43-12.81c2.56-4,5.14-7.62,7.57-11s4.78-6.54,7-9.3a106.31,106.31,0,0,1,11.57-12.24c1.48-1.33,2.66-2.33,3.46-3l.93-.75A2.18,2.18,0,0,1,396.2,226.66Z" style="fill: rgb(38, 50, 56); transform-origin: 365.840836px 296.910004px;" id="el9ksw4a6u03h" class="animable"></path><path d="M358,276a6.19,6.19,0,0,1-.29-1.27c-.16-.83-.34-2-.55-3.52-.43-3-.87-7.11-1.34-11.66s-1-8.67-1.44-11.64c-.23-1.48-.43-2.67-.57-3.5a5.4,5.4,0,0,1-.17-1.3,5.53,5.53,0,0,1,.37,1.25c.22.82.47,2,.75,3.49.57,3,1.13,7.08,1.6,11.64s.87,8.56,1.18,11.67c.15,1.4.28,2.59.38,3.54A5.54,5.54,0,0,1,358,276Z" style="fill: rgb(38, 50, 56); transform-origin: 355.824356px 259.555px;" id="el1ae1if2oebw" class="animable"></path><path d="M396.48,268.82A8,8,0,0,1,395,269c-1,.09-2.42.21-4.18.41-3.52.38-8.36,1.08-13.67,2.08s-10.08,2.13-13.51,3c-1.71.44-3.09.84-4,1.11a7.3,7.3,0,0,1-1.5.36,8.71,8.71,0,0,1,1.44-.57c.94-.33,2.3-.79,4-1.28,3.41-1,8.18-2.19,13.51-3.21A136.16,136.16,0,0,1,390.74,269c1.77-.15,3.2-.21,4.2-.23A7.69,7.69,0,0,1,396.48,268.82Z" style="fill: rgb(38, 50, 56); transform-origin: 377.309998px 272.35611px;" id="elsdf39rxltid" class="animable"></path><path d="M341.3,318.72a2.08,2.08,0,0,1-.26-.47l-.66-1.39c-.57-1.21-1.34-3-2.26-5.19-1.86-4.4-4.23-10.56-6.75-17.4s-4.84-13-6.6-17.45c-.86-2.16-1.57-3.93-2.1-5.25l-.56-1.43a1.93,1.93,0,0,1-.16-.52,2.08,2.08,0,0,1,.26.47l.66,1.39c.56,1.21,1.34,3,2.26,5.19,1.86,4.4,4.23,10.56,6.75,17.4s4.84,13,6.6,17.45c.86,2.16,1.57,3.93,2.09,5.25.23.57.42,1,.57,1.43A1.93,1.93,0,0,1,341.3,318.72Z" style="fill: rgb(38, 50, 56); transform-origin: 331.624969px 294.169998px;" id="elr3bntn2y0o" class="animable"></path><path d="M392.38,302.25a2.12,2.12,0,0,1-.51.21l-1.48.5-5.47,1.77c-4.62,1.5-11,3.64-18,6s-13.41,4.46-18.06,5.86c-2.32.71-4.21,1.25-5.52,1.61l-1.51.39a2.59,2.59,0,0,1-.54.11,2.12,2.12,0,0,1,.51-.21l1.48-.5,5.47-1.77c4.62-1.5,11-3.64,18-6s13.4-4.46,18.05-5.86c2.33-.71,4.21-1.25,5.53-1.61l1.51-.39A2.59,2.59,0,0,1,392.38,302.25Z" style="fill: rgb(38, 50, 56); transform-origin: 366.834991px 310.474976px;" id="elap6ns4eszse" class="animable"></path></g><g id="freepik--Padlock--inject-84" style="transform-origin: 354.572021px 88.534931px;" class="animable"><path d="M371.54,59.68l-5.15,1.84-2.21-6.73c-4.06-12.41-17-19-28.89-14.81s-18.22,17.8-14.16,30.21l2.21,6.73-5.17,1.85a8.22,8.22,0,0,0-4.82,10.28l14.33,43.79a7.73,7.73,0,0,0,9.86,5.11l53.37-19.09a8.26,8.26,0,0,0,4.87-10.38L381.44,64.69A7.71,7.71,0,0,0,371.54,59.68Zm-40.68,7a13.19,13.19,0,0,1,7.76-16.55,12.36,12.36,0,0,1,15.83,8.11l2.2,6.73-23.59,8.44Zm30,38.86,3.66,11.18a.91.91,0,0,1-.57,1.12l-5.13,1.83a.82.82,0,0,1-1-.54L354.13,108a10,10,0,0,1-9-7,10.51,10.51,0,0,1,6.19-13.18,9.85,9.85,0,0,1,12.61,6.46A10.68,10.68,0,0,1,360.87,105.57Z" style="fill: rgb(31, 198, 79); transform-origin: 354.572021px 88.534931px;" id="el4t4nngfs2za" class="animable"></path><path d="M366.16,61.4c0,.14-9.55,3.73-21.43,8S323.16,77.1,323.11,77s9.55-3.72,21.44-8S366.11,61.27,366.16,61.4Z" style="fill: rgb(38, 50, 56); transform-origin: 344.634903px 69.199289px;" id="elzvlfz2n9xdk" class="animable"></path><path d="M377.5,63.24a1.75,1.75,0,0,1,.11.27c.08.2.17.46.29.78.26.73.62,1.74,1.07,3l3.84,11.18c1.6,4.74,3.51,10.36,5.63,16.6,1,3.13,2.18,6.39,3.28,9.82a15,15,0,0,1,.75,5.49,7.37,7.37,0,0,1-.81,2.77,7.64,7.64,0,0,1-1.89,2.23,18,18,0,0,1-5.08,2.59l-5.15,1.85-9.75,3.49-16.51,5.88-11.15,3.92-3,1-.8.26a.85.85,0,0,1-.27.07s.08,0,.25-.12l.78-.31,3-1.13,11.09-4.08,16.48-6,9.73-3.52,5.15-1.86a17.13,17.13,0,0,0,4.93-2.51,7.11,7.11,0,0,0,1.76-2.07,6.58,6.58,0,0,0,.75-2.57,14.39,14.39,0,0,0-.72-5.29c-1.08-3.4-2.22-6.69-3.25-9.82-2.08-6.25-4-11.89-5.52-16.63s-2.8-8.55-3.68-11.23c-.42-1.31-.74-2.33-1-3.07l-.24-.8A.93.93,0,0,1,377.5,63.24Z" style="fill: rgb(38, 50, 56); transform-origin: 365.274277px 98.84px;" id="elkwgkufg8wpq" class="animable"></path><path d="M349.34,49.45s-.53-.26-1.51-.66a13.32,13.32,0,0,0-4.37-.88A15,15,0,0,0,337,49.13a14.4,14.4,0,0,0-6.11,5.11,13.52,13.52,0,0,0-2.35,7.59,23.39,23.39,0,0,0,1,6.55c.52,1.82,1.06,3.27,1.42,4.28a11.17,11.17,0,0,1,.52,1.58,8.78,8.78,0,0,1-.71-1.51c-.41-1-1-2.42-1.58-4.25a22.74,22.74,0,0,1-1.15-6.65,13.71,13.71,0,0,1,2.4-7.88,14.63,14.63,0,0,1,6.35-5.26,14.88,14.88,0,0,1,6.65-1.14,12.59,12.59,0,0,1,4.43,1.05,8.26,8.26,0,0,1,1.08.6A1.49,1.49,0,0,1,349.34,49.45Z" style="fill: rgb(38, 50, 56); transform-origin: 338.689728px 60.882507px;" id="el87t89p3rjky" class="animable"></path><path d="M349.8,88.58a3.45,3.45,0,0,1,.5-.25,9.93,9.93,0,0,1,1.55-.55,11.09,11.09,0,0,1,2.59-.44,8.78,8.78,0,0,1,3.51.53c2.56.9,4.91,3.51,6.07,7a10.08,10.08,0,0,1,0,5.74A13,13,0,0,1,360.8,106l.06-.27c1.33,3.65,2.78,7.61,4.28,11.74l.09.25-.25.09-2.29.76-5,1.67-.25.08-.08-.25c-1.37-4.14-2.87-8-4-11.79l.22.17a10,10,0,0,1-5.36-2.11,12.1,12.1,0,0,1-3.35-4,9.14,9.14,0,0,1-1.06-4.5,10.86,10.86,0,0,1,4.19-8.26,6.36,6.36,0,0,1,1.73-1,19.27,19.27,0,0,0-1.64,1.09A10.63,10.63,0,0,0,345,94.06a9.46,9.46,0,0,0,.31,8.07,11.74,11.74,0,0,0,3.27,3.84,9.52,9.52,0,0,0,5.11,2l.17,0,.05.15c1.1,3.72,2.61,7.61,4,11.77l-.33-.16,5-1.67,2.28-.77-.16.34c-1.49-4.13-2.93-8.1-4.25-11.75l0-.15.12-.12a12.74,12.74,0,0,0,3.16-5.17,9.67,9.67,0,0,0,0-5.49c-1.09-3.36-3.34-5.91-5.78-6.81a8.59,8.59,0,0,0-3.39-.57,11.46,11.46,0,0,0-2.56.35C350.51,88.29,349.81,88.63,349.8,88.58Z" style="fill: rgb(38, 50, 56); transform-origin: 354.518646px 103.823669px;" id="elszuj7mhebve" class="animable"></path></g><g id="freepik--Device--inject-84" style="transform-origin: 269.579987px 230.124947px;" class="animable"><path d="M318.89,377.32,219,376.86A21.77,21.77,0,0,1,197.35,355l1.06-250.41a21.75,21.75,0,0,1,21.86-21.66l99.88.46a21.77,21.77,0,0,1,21.66,21.85l-1.06,250.4A21.77,21.77,0,0,1,318.89,377.32Z" style="fill: rgb(69, 90, 100); transform-origin: 269.579987px 230.124947px;" id="eltksvjce7ozg" class="animable"></path><path d="M320,92,300.64,92a4.81,4.81,0,0,0-4.72,4.9l0,3.51a4.8,4.8,0,0,1-4.72,4.89l-37.74-.17a4.82,4.82,0,0,1-4.69-4.94l0-3.51a4.82,4.82,0,0,0-4.68-4.94l-6.81,0-16.95-.08A15.24,15.24,0,0,0,205,106.75l-1,244.42a15.23,15.23,0,0,0,15.16,15.3l99.68.46a15.24,15.24,0,0,0,15.31-15.17l1-244.42A15.25,15.25,0,0,0,320,92Z" style="fill: rgb(255, 255, 255); transform-origin: 269.575066px 229.294937px;" id="elno9ynn25aq" class="animable"></path><path d="M306.59,334.32,232.47,334c-.77,0-1.39-.84-1.38-1.86l.08-19.39c0-1,.63-1.86,1.4-1.86l74.12.34a1.68,1.68,0,0,1,1.38,1.87L308,332.47C308,333.5,307.36,334.33,306.59,334.32Z" style="fill: rgb(31, 198, 79); transform-origin: 269.586899px 322.605057px;" id="el6i1xpjr6n7r" class="animable"></path><text transform="matrix(0.96, 0, 0, 1, 252.59, 324.95)" style="font-size:8.298959732055664px;fill:#e8e8e3;font-family:Montserrat-Regular, Montserrat">SING UP</text><g id="elz4zdh1m7i5"><rect x="221.51" y="163.81" width="25.72" height="4.72" style="fill: rgb(31, 198, 79); transform-origin: 234.37px 166.17px; transform: rotate(0.26deg);" class="animable"></rect></g><g id="elqn50qc37pu"><rect x="221.51" y="163.81" width="25.72" height="4.72" style="opacity: 0.1; transform-origin: 234.37px 166.17px; transform: rotate(0.26deg);" class="animable"></rect></g><path d="M322.65,192.83a2.3,2.3,0,0,0,.59-.14,1.58,1.58,0,0,0,1-1.35c0-1.59,0-3.91,0-6.89,0-1.49,0-3.16,0-5,0-.45,0-.92,0-1.39a1.94,1.94,0,0,0-.28-1.31,1.5,1.5,0,0,0-1.19-.61h-1.56l-14.45,0-83.64-.31a1.33,1.33,0,0,0-1.1.55,1.91,1.91,0,0,0-.26,1.31c0,1,0,2,0,3q0,3,0,6c0,1,0,2,0,3a7.89,7.89,0,0,0,0,1.4,1.35,1.35,0,0,0,.78.9,1.56,1.56,0,0,0,.62.11h5.09l22.21.12,37.6.23,25.35.2,6.89.08,1.79,0c.41,0,.61,0,.61,0l-.61,0-1.79,0h-6.89l-25.35,0-37.6-.12-22.21-.09h-5.09a2,2,0,0,1-.82-.14,1.88,1.88,0,0,1-1.08-1.25,2.83,2.83,0,0,1-.06-.8v-.74c0-1,0-2,0-3q0-3,0-6c0-1,0-2,0-3a5.6,5.6,0,0,1,0-.8,1.7,1.7,0,0,1,.33-.81,1.84,1.84,0,0,1,1.52-.77l83.64.46,14.45.1,1.56,0a1.71,1.71,0,0,1,1.4.73,2.13,2.13,0,0,1,.32,1.47c0,.47,0,.94,0,1.39,0,1.82,0,3.49,0,5,0,3-.07,5.3-.09,6.9a1.62,1.62,0,0,1-1.05,1.39A1.2,1.2,0,0,1,322.65,192.83Z" style="fill: rgb(224, 224, 224); transform-origin: 272.813789px 184.019913px;" id="eltts1tvlnp7s" class="animable"></path><g id="elzm7e0hvnvk"><rect x="228.41" y="182.01" width="47.04" height="4.41" style="fill: rgb(31, 198, 79); transform-origin: 251.93px 184.215px; transform: rotate(0deg);" class="animable"></rect></g><g id="elox4700ovrk"><rect x="228.41" y="182.01" width="47.04" height="4.41" style="fill: rgb(255, 255, 255); opacity: 0.2; transform-origin: 251.93px 184.215px; transform: rotate(0deg);" class="animable"></rect></g><g id="elougsm9rbsuc"><rect x="221.33" y="206.87" width="25.72" height="4.72" style="fill: rgb(31, 198, 79); transform-origin: 234.19px 209.23px; transform: rotate(0.26deg);" class="animable"></rect></g><g id="el2no9ionap7o"><rect x="221.33" y="206.87" width="25.72" height="4.72" style="opacity: 0.1; transform-origin: 234.19px 209.23px; transform: rotate(0.26deg);" class="animable"></rect></g><path d="M322,235.89a5.17,5.17,0,0,0,.6-.11,2.05,2.05,0,0,0,1.26-1.14,2.8,2.8,0,0,0,.18-1.27c0-.48,0-1,0-1.58,0-1.16,0-2.48,0-4v-6.35a2.15,2.15,0,0,0-.29-1.32,1.94,1.94,0,0,0-1.09-.85,6.13,6.13,0,0,0-1.51-.08l-14.39,0-83.35-.31a1.85,1.85,0,0,0-1.83,1.61c0,.95,0,2,0,3q0,3,0,6c0,1,0,2,0,3a5.74,5.74,0,0,0,.06,1.4,1.9,1.9,0,0,0,.73,1,2.08,2.08,0,0,0,1.24.32H225l2.89,0,22.13.11,37.47.23,25.26.2,6.87.08,1.79,0,.6,0-.6,0-1.79,0-6.87,0-25.26,0L250,235.79l-22.13-.08h-4.35a2.51,2.51,0,0,1-1.53-.41,2.4,2.4,0,0,1-.94-1.31,6.3,6.3,0,0,1-.08-1.54c0-1,0-2,0-3q0-3,0-6c0-1,0-2,0-3a2.37,2.37,0,0,1,2.35-2.07l83.35.46,14.39.11a6.19,6.19,0,0,1,1.6.11,2.21,2.21,0,0,1,1.23,1,2.41,2.41,0,0,1,.32,1.46c0,.47,0,.93,0,1.39,0,1.81,0,3.47,0,5s0,2.82,0,4c0,.57,0,1.1,0,1.59a2.79,2.79,0,0,1-.21,1.31,2.12,2.12,0,0,1-1.35,1.14A1.88,1.88,0,0,1,322,235.89Z" style="fill: rgb(224, 224, 224); transform-origin: 272.587708px 227.168175px;" id="elf19cit38216" class="animable"></path><g id="elqxspofub5y"><rect x="221.14" y="251.79" width="25.72" height="4.72" style="fill: rgb(31, 198, 79); transform-origin: 234px 254.15px; transform: rotate(0.26deg);" class="animable"></rect></g><g id="elket3li04jvo"><rect x="221.14" y="251.79" width="25.72" height="4.72" style="opacity: 0.1; transform-origin: 234px 254.15px; transform: rotate(0.26deg);" class="animable"></rect></g><path d="M321.8,280.8a4.78,4.78,0,0,0,.6-.11,2.06,2.06,0,0,0,1.26-1.13,2.82,2.82,0,0,0,.18-1.27c0-.49,0-1,0-1.59,0-1.15,0-2.48,0-4v-6.35a2.15,2.15,0,0,0-.29-1.32,2,2,0,0,0-1.09-.84,6.11,6.11,0,0,0-1.51-.09l-14.39,0-83.35-.31a1.85,1.85,0,0,0-1.83,1.61c0,1,0,2,0,3,0,2,0,4,0,6,0,1,0,2,0,3a5.66,5.66,0,0,0,.06,1.39,1.83,1.83,0,0,0,.73,1,2,2,0,0,0,1.24.32h4.35l22.13.12,37.47.23,25.26.2,6.87.08,1.79,0c.4,0,.6,0,.6,0s-.2,0-.6,0l-1.79,0-6.87,0-25.26,0-37.47-.11-22.13-.09h-4.35a2.45,2.45,0,0,1-1.53-.41,2.4,2.4,0,0,1-.94-1.31,6.3,6.3,0,0,1-.08-1.54c0-1,0-2,0-3q0-3,0-6c0-1,0-2,0-3.05a2.36,2.36,0,0,1,2.34-2.07l83.35.46,14.39.11a6.19,6.19,0,0,1,1.6.11,2.21,2.21,0,0,1,1.23,1,2.41,2.41,0,0,1,.32,1.46c0,.47,0,.94,0,1.39,0,1.81,0,3.47,0,5s0,2.82,0,4c0,.57,0,1.1,0,1.59a2.74,2.74,0,0,1-.21,1.31,2.12,2.12,0,0,1-1.35,1.14A1.58,1.58,0,0,1,321.8,280.8Z" style="fill: rgb(224, 224, 224); transform-origin: 272.472694px 271.987579px;" id="elm9ahsq4jv3q" class="animable"></path><g id="el8v6psv4d9n6"><rect x="228.23" y="225.07" width="47.04" height="4.41" style="fill: rgb(31, 198, 79); transform-origin: 251.75px 227.275px; transform: rotate(0.26deg);" class="animable"></rect></g><g id="elheoj1pv5qys"><rect x="228.23" y="225.07" width="47.04" height="4.41" style="fill: rgb(255, 255, 255); opacity: 0.2; transform-origin: 251.75px 227.275px; transform: rotate(0.26deg);" class="animable"></rect></g><path d="M232.51,272.64a2.06,2.06,0,1,1-2-2.21A2.12,2.12,0,0,1,232.51,272.64Z" style="fill: rgb(31, 198, 79); transform-origin: 230.453789px 272.489319px;" id="elpzfw3pke6n" class="animable"></path><path d="M238.88,272.67a2.06,2.06,0,1,1-4.11,0,2.06,2.06,0,1,1,4.11,0Z" style="fill: rgb(31, 198, 79); transform-origin: 236.82502px 272.670029px;" id="eled4hx6by8d9" class="animable"></path><path d="M245.26,272.7a2.06,2.06,0,1,1-2-2.21A2.13,2.13,0,0,1,245.26,272.7Z" style="fill: rgb(31, 198, 79); transform-origin: 243.203583px 272.549377px;" id="el6zjicyf5d9" class="animable"></path><path d="M251.63,272.73a2.06,2.06,0,1,1-2-2.21A2.13,2.13,0,0,1,251.63,272.73Z" style="fill: rgb(31, 198, 79); transform-origin: 249.573608px 272.579315px;" id="elll3q5554gx8" class="animable"></path><path d="M258,272.75a2.06,2.06,0,1,1-2-2.2A2.13,2.13,0,0,1,258,272.75Z" style="fill: rgb(31, 198, 79); transform-origin: 255.943039px 272.609253px;" id="eldy6dwcqbajp" class="animable"></path><path d="M264.38,272.78a2.06,2.06,0,1,1-2.05-2.2A2.13,2.13,0,0,1,264.38,272.78Z" style="fill: rgb(31, 198, 79); transform-origin: 262.322998px 272.639999px;" id="elzb2dvv5g4lg" class="animable"></path><path d="M270.75,272.81a2.06,2.06,0,1,1-4.11,0,2.06,2.06,0,1,1,4.11,0Z" style="fill: rgb(31, 198, 79); transform-origin: 268.695023px 272.809982px;" id="el9o5faho95x" class="animable"></path><path d="M277.12,272.84a2.06,2.06,0,1,1-2.05-2.2A2.13,2.13,0,0,1,277.12,272.84Z" style="fill: rgb(31, 198, 79); transform-origin: 275.063004px 272.700027px;" id="el4p9h4266kyw" class="animable"></path><path d="M283.49,272.87a2.06,2.06,0,1,1-2-2.2A2.13,2.13,0,0,1,283.49,272.87Z" style="fill: rgb(31, 198, 79); transform-origin: 281.433044px 272.729263px;" id="elwxr0a11otyg" class="animable"></path><g id="elouvtp14fie"><g style="opacity: 0.2; transform-origin: 255.943398px 272.721344px;" class="animable"><path d="M232.51,272.64a2.06,2.06,0,1,1-2-2.21A2.12,2.12,0,0,1,232.51,272.64Z" style="fill: rgb(255, 255, 255); transform-origin: 230.453789px 272.489319px;" id="el30pvps5fw4y" class="animable"></path><path d="M238.88,272.67a2.06,2.06,0,1,1-4.11,0,2.06,2.06,0,1,1,4.11,0Z" style="fill: rgb(255, 255, 255); transform-origin: 236.82502px 272.670029px;" id="elyy4l0u50b1" class="animable"></path><path d="M245.26,272.7a2.06,2.06,0,1,1-2-2.21A2.13,2.13,0,0,1,245.26,272.7Z" style="fill: rgb(255, 255, 255); transform-origin: 243.203583px 272.549377px;" id="elw324nf0v85" class="animable"></path><path d="M251.63,272.73a2.06,2.06,0,1,1-2-2.21A2.13,2.13,0,0,1,251.63,272.73Z" style="fill: rgb(255, 255, 255); transform-origin: 249.573608px 272.579315px;" id="el863uxqq28qx" class="animable"></path><path d="M258,272.75a2.06,2.06,0,1,1-2-2.2A2.13,2.13,0,0,1,258,272.75Z" style="fill: rgb(255, 255, 255); transform-origin: 255.943039px 272.609253px;" id="elf5gzxb80gn" class="animable"></path><path d="M264.38,272.78a2.06,2.06,0,1,1-2.05-2.2A2.13,2.13,0,0,1,264.38,272.78Z" style="fill: rgb(255, 255, 255); transform-origin: 262.322998px 272.639999px;" id="elww3915766nn" class="animable"></path><path d="M270.75,272.81a2.06,2.06,0,1,1-4.11,0,2.06,2.06,0,1,1,4.11,0Z" style="fill: rgb(255, 255, 255); transform-origin: 268.695023px 272.809982px;" id="elb02gzuk7nth" class="animable"></path><path d="M277.12,272.84a2.06,2.06,0,1,1-2.05-2.2A2.13,2.13,0,0,1,277.12,272.84Z" style="fill: rgb(255, 255, 255); transform-origin: 275.063004px 272.700027px;" id="elgnwhidskh0i" class="animable"></path><path d="M283.49,272.87a2.06,2.06,0,1,1-2-2.2A2.13,2.13,0,0,1,283.49,272.87Z" style="fill: rgb(255, 255, 255); transform-origin: 281.433044px 272.729263px;" id="elwpnygaajve" class="animable"></path></g></g><path d="M274.44,128.51a3.87,3.87,0,0,0,2.31-3.59,3.64,3.64,0,1,0-7.27,0,3.88,3.88,0,0,0,2.32,3.63c-5.6.84-5.35,6.92-5.35,6.92l13.24.06S280,129.34,274.44,128.51Z" style="fill: rgb(31, 198, 79); transform-origin: 273.070724px 128.309509px;" id="el4czw9xp31mb" class="animable"></path><g id="elgwjz3hcins8"><path d="M274.44,128.51a3.87,3.87,0,0,0,2.31-3.59,3.64,3.64,0,1,0-7.27,0,3.88,3.88,0,0,0,2.32,3.63c-5.6.84-5.35,6.92-5.35,6.92l13.24.06S280,129.34,274.44,128.51Z" style="opacity: 0.1; transform-origin: 273.070724px 128.309509px;" class="animable"></path></g><g id="elyg2wsq77qc"><rect x="248.74" y="139.37" width="47.19" height="5.64" style="fill: rgb(31, 198, 79); transform-origin: 272.335px 142.19px; transform: rotate(0.26deg);" class="animable"></rect></g><g id="elaz7cmmjfdf9"><rect x="248.74" y="139.37" width="47.19" height="5.64" style="fill: rgb(255, 255, 255); opacity: 0.2; transform-origin: 272.335px 142.19px; transform: rotate(0.26deg);" class="animable"></rect></g></g><g id="freepik--speech-bubble--inject-84" style="transform-origin: 122.529179px 197.959984px;" class="animable animator-active"><path d="M122.47,168.68l-.47,0-1.36.1a15.43,15.43,0,0,0-2.19.29,13.53,13.53,0,0,0-1.39.27l-1.55.43a25.47,25.47,0,0,0-7.37,3.65,25.94,25.94,0,0,0-7.26,8.08,27.08,27.08,0,0,0-2.54,5.81,27.94,27.94,0,0,0-1.11,6.78,27.48,27.48,0,0,0,.06,3.62c0,.61.17,1.22.25,1.84a11.82,11.82,0,0,0,.35,1.85,26.39,26.39,0,0,0,15,18.33,23.76,23.76,0,0,0,8.59,1.93,23.19,23.19,0,0,0,9-1.29l.88-.33.12,0,.1.06,12.61,6.4-.37.32c-1.35-4.18-2.65-8.23-3.91-12.12l0-.15.11-.11a27,27,0,0,0,6.62-11,27.7,27.7,0,0,0,1-11.72,27.38,27.38,0,0,0-3.31-9.94,27,27,0,0,0-5.7-7,27.85,27.85,0,0,0-6.19-3.94,26.94,26.94,0,0,0-5.24-1.65l-2-.33-1.45-.11-.88-.06-.3,0a1.36,1.36,0,0,1,.3,0l.89,0,1.45.06,2,.29a26.5,26.5,0,0,1,5.31,1.59,27.79,27.79,0,0,1,6.3,3.93,27.07,27.07,0,0,1,5.82,7,27.45,27.45,0,0,1,3.41,10.07,28,28,0,0,1-.93,11.92,27.36,27.36,0,0,1-6.72,11.23l.06-.26c1.26,3.89,2.57,7.94,3.93,12.11l.19.61-.57-.29-12.61-6.39h.22l-.9.33a23.86,23.86,0,0,1-9.17,1.32,24.3,24.3,0,0,1-8.77-2A26.31,26.31,0,0,1,100.25,209a26.7,26.7,0,0,1-2.83-7.4,15.32,15.32,0,0,1-.35-1.89c-.08-.63-.21-1.25-.24-1.87a29.55,29.55,0,0,1,1.11-10.56,26.89,26.89,0,0,1,2.61-5.88,26.17,26.17,0,0,1,7.41-8.13,25.28,25.28,0,0,1,7.49-3.62l1.57-.4a13.89,13.89,0,0,1,1.4-.25,14.85,14.85,0,0,1,2.21-.24l1.37-.05A3.36,3.36,0,0,1,122.47,168.68Z" style="fill: rgb(31, 198, 79); transform-origin: 122.529179px 197.959984px;" id="el4u029f4embd" class="animable"></path><path d="M128.17,192h-1.85l-4-5.62v-3.69s-2.86-.18-2.52,4.65,0,3.6,0,3.6-6.07,0-6.57.55-.53,6.41-.6,9.68a3.54,3.54,0,0,0,2.51,3.56,2.48,2.48,0,0,0,.65.09c1.52,0,9.25-1.23,9.25-1.23h3.19Z" style="fill: rgb(31, 198, 79); transform-origin: 120.427898px 193.754578px;" id="el3nb9dfpgwrp" class="animable"></path><polygon points="133.46 191.01 132.32 203.65 129.16 203.65 129.16 191.27 133.46 191.01" style="fill: rgb(31, 198, 79); transform-origin: 131.310005px 197.329994px;" id="eldtifpvpz1nj" class="animable"></polygon></g><g id="freepik--Character--inject-84" style="transform-origin: 194.059685px 313.81694px;" class="animable"><path d="M171.15,448.34v-8.55l-15.33-.11-.13,12.93.95.07c4.23.27,21.52.67,24.36-.21C184.16,451.49,171.15,448.34,171.15,448.34Z" style="fill: rgb(31, 198, 79); transform-origin: 168.592384px 446.344574px;" id="eldj5rlciulmt" class="animable"></path><path d="M181.36,451.67c0,.14-5.74.26-12.81.26s-12.81-.12-12.81-.26,5.74-.26,12.81-.26S181.36,451.53,181.36,451.67Z" style="fill: rgb(38, 50, 56); transform-origin: 168.550003px 451.670013px;" id="elpayqdhqg5fk" class="animable"></path><path d="M171.42,450.09c-.13-.07,0-.52.31-1s.73-.68.83-.58-.11.48-.41.89S171.55,450.16,171.42,450.09Z" style="fill: rgb(38, 50, 56); transform-origin: 171.977562px 449.292206px;" id="els3o05gvn40m" class="animable"></path><path d="M172.4,450.65c-.14,0-.07-.56.23-1.09s.7-.85.81-.77-.07.53-.35,1S172.53,450.7,172.4,450.65Z" style="fill: rgb(38, 50, 56); transform-origin: 172.901733px 449.715851px;" id="elzbn00hrmnmm" class="animable"></path><path d="M160.36,451.63c-.06,0-.29-.18-.62-.56a9.91,9.91,0,0,0-1.34-1.34,3.53,3.53,0,0,0-1.66-.73c-.47-.06-.77,0-.8-.06s.26-.27.81-.31a3.09,3.09,0,0,1,2,.68,5.64,5.64,0,0,1,1.32,1.55C160.3,451.3,160.42,451.59,160.36,451.63Z" style="fill: rgb(38, 50, 56); transform-origin: 158.156616px 450.129669px;" id="elgxhcjnv3qig" class="animable"></path><path d="M171.47,448.48c.07.12-.19.42-.63.58s-.83.1-.85,0,.29-.31.67-.45S171.39,448.36,171.47,448.48Z" style="fill: rgb(38, 50, 56); transform-origin: 170.735176px 448.793732px;" id="eliphofzrxmh" class="animable"></path><path d="M171.23,447.65c0,.15-.4.27-.92.28s-.93-.11-.92-.25.42-.27.92-.28S171.21,447.51,171.23,447.65Z" style="fill: rgb(38, 50, 56); transform-origin: 170.309906px 447.664932px;" id="elsugf66qck4c" class="animable"></path><path d="M208.9,448.34v-8.55l-15.33-.11-.13,12.8.95.07c4.23.27,21.53.8,24.36-.08C221.91,451.49,208.9,448.34,208.9,448.34Z" style="fill: rgb(31, 198, 79); transform-origin: 206.342392px 446.318237px;" id="elyrxruu704rn" class="animable"></path><path d="M219.11,451.69c0,.14-5.73.26-12.81.26s-12.8-.12-12.8-.26,5.73-.26,12.8-.26S219.11,451.55,219.11,451.69Z" style="fill: rgb(38, 50, 56); transform-origin: 206.305px 451.690002px;" id="elzt4pnqo7ojo" class="animable"></path><path d="M209.17,450.09c-.12-.07,0-.52.31-1s.73-.68.83-.58-.11.48-.41.89S209.3,450.16,209.17,450.09Z" style="fill: rgb(38, 50, 56); transform-origin: 209.729691px 449.292206px;" id="elir1r2qumu2" class="animable"></path><path d="M210.15,450.65c-.13,0-.07-.56.24-1.09s.7-.85.81-.77-.08.53-.36,1S210.29,450.7,210.15,450.65Z" style="fill: rgb(38, 50, 56); transform-origin: 210.6586px 449.715851px;" id="el110h9uozs8ci" class="animable"></path><path d="M198.11,451.63c-.06,0-.28-.18-.62-.56a9.91,9.91,0,0,0-1.34-1.34,3.53,3.53,0,0,0-1.66-.73c-.46-.06-.77,0-.8-.06s.26-.27.81-.31a3.09,3.09,0,0,1,2,.68,5.47,5.47,0,0,1,1.32,1.55C198.05,451.3,198.17,451.59,198.11,451.63Z" style="fill: rgb(38, 50, 56); transform-origin: 195.906616px 450.129669px;" id="eloysbqdh2mo" class="animable"></path><path d="M209.22,448.48c.07.12-.19.42-.63.58s-.83.1-.85,0,.29-.31.67-.45S209.14,448.36,209.22,448.48Z" style="fill: rgb(38, 50, 56); transform-origin: 208.485176px 448.793732px;" id="elv8ybiutnrj" class="animable"></path><path d="M209,447.65c0,.15-.4.27-.92.28s-.92-.11-.91-.25.41-.27.91-.28S209,447.51,209,447.65Z" style="fill: rgb(38, 50, 56); transform-origin: 208.084908px 447.664932px;" id="elwzmu7q0ekn" class="animable"></path><path d="M265.38,194.44c-.4-.41-1.39-.21-1.39-.21a5.12,5.12,0,0,0,0-1.74c-.18-.56-1.44-.45-1.44-.45a5.81,5.81,0,0,1,0-1.42.51.51,0,0,0-.29-.51,4.62,4.62,0,0,0-1.88-.34c-.77-.55,2.35-4.92,3.51-6.32s.95-2.49-.08-2.49c-.71,0-4.35,4.2-5.47,5.61s-4.09,5.33-4.19,2.2-1.36-5.49-2.15-5.89-1.63.54-1.2,1.41a11.19,11.19,0,0,1,.7,3.08,7.36,7.36,0,0,1-.11,2.52,30.22,30.22,0,0,1-1.35,4.52l-.08,0s-21.82,20.93-23.4,22.42c-1.41,1.34-29.77-1.59-35.46-2.19a38.09,38.09,0,0,0-5.84-.4c-2.47.11-2.91.46-5.37.49a121.62,121.62,0,0,0-18.54,1.63,15.37,15.37,0,0,0-12.06,10.46c-5.73,17.9-18.71,60.27-21,84.07a101,101,0,0,0-4.68,9.67c-1.61,4.38-1.22,4.53-.68,4.63,1.46.27,3.12-7.59,3.74-5.69s-3.15,9.37-1.62,9.59c2,.28,3.59-8,3.78-8.66s1.18-.45,1,.17c-.29.88-3.1,10.21-1.14,10.51,1.08.16,1.2-1.81,1.2-1.81s2-8.93,2.91-8.75-.06,5.45-.52,7.21.18,2.65,1.12,2.22c.64-.3,2.17-5.65,2.59-7.39s1.47-6.56,2.88-3.77,3.55,4.41,4.43,4.45a1,1,0,0,0,.49-1.79,11.33,11.33,0,0,1-1.93-2.5,7.37,7.37,0,0,1-1-2.34,25.37,25.37,0,0,1-.7-5.06l-.16-1c2.24-11.09,8.69-43.64,18-64.43l3.82,7.86,1.66,5.82-10.18,25.13,43.42-.57-6.48-24.94,7.87-26h0c8.51.19,30.36.51,34-1.14,4.58-2,28.27-31.92,28.27-31.92h0a54.72,54.72,0,0,0,4.43-3.84S266.25,195.34,265.38,194.44Z" style="fill: rgb(255, 190, 157); transform-origin: 194.059685px 256.039627px;" id="elfb4tlaz2f5v" class="animable"></path><path d="M151.39,266.39c1.26-4.3,7.73-25.56,7.73-25.56s3.18,17.33,2.34,19.42a37,37,0,0,1-2.73,5.16c-7.34,11.17-6.38,16.76-6.38,16.76l44.35-1.35c.1-6.2-3.57-20.62-4.33-22.92s1.77-9.83,1.77-9.83,5-5.09,4.82-7.71a42.38,42.38,0,0,0-.87-7l27,1-.85-18.3-38.78-3.88c-1.35,3.81-13.56,1.94-13.56,1.94-13.18.44-14,2.86-19.48,7.12s-14.55,40.82-14.55,40.82Z" style="fill: rgb(31, 198, 79); transform-origin: 181.479996px 247.175026px;" id="elgswoth7zpd" class="animable"></path><path d="M177.61,262.06a9.33,9.33,0,0,1-2.33.12c-1.45,0-3.44-.1-5.63-.32s-4.17-.53-5.58-.81a9.62,9.62,0,0,1-2.27-.58,12.5,12.5,0,0,1,2.33.22c1.42.18,3.39.43,5.57.65s4.16.37,5.59.47A12.34,12.34,0,0,1,177.61,262.06Z" style="fill: rgb(38, 50, 56); transform-origin: 169.704994px 261.337723px;" id="el0k38oqja7aff" class="animable"></path><path d="M180.65,258.29a10.25,10.25,0,0,1-2.42.83A44.46,44.46,0,0,1,166,260.57a10.09,10.09,0,0,1-2.54-.24,17.09,17.09,0,0,1,2.54-.13c1.57-.05,3.73-.16,6.11-.44s4.5-.68,6-1A16.58,16.58,0,0,1,180.65,258.29Z" style="fill: rgb(38, 50, 56); transform-origin: 172.055px 259.434753px;" id="elkujmri736t" class="animable"></path><path d="M195.57,241.47a10.41,10.41,0,0,1-.31,2.26c-.26,1.39-.66,3.29-1.17,5.37s-1,4-1.44,5.3a10,10,0,0,1-.78,2.15,10.18,10.18,0,0,1,.42-2.24c.38-1.56.81-3.36,1.29-5.33s.94-3.77,1.32-5.33A9.54,9.54,0,0,1,195.57,241.47Z" style="fill: rgb(38, 50, 56); transform-origin: 193.720024px 249.009995px;" id="el5w29hy5sjep" class="animable"></path><path d="M151.86,263.84a46.48,46.48,0,0,1-6.83-1.59,47.46,47.46,0,0,1-6.7-2.1,48.09,48.09,0,0,1,6.83,1.59A46.93,46.93,0,0,1,151.86,263.84Z" style="fill: rgb(38, 50, 56); transform-origin: 145.095001px 261.99498px;" id="elqdn0nz6ob5g" class="animable"></path><path d="M198.57,233.14a3.36,3.36,0,0,1-1.14,0,11.85,11.85,0,0,1-3.05-.73,12.53,12.53,0,0,1-7.24-7.11,12.92,12.92,0,0,1-.89-5.63,8.75,8.75,0,0,1,1.37-4.46,4.63,4.63,0,0,1,2.53-1.87,3.06,3.06,0,0,1,.85-.11c.2,0,.3,0,.3,0s-.42,0-1.09.27a4.55,4.55,0,0,0-2.29,1.87c-1.36,2.14-1.74,6.05-.29,9.7a12.22,12.22,0,0,0,3.09,4.52,13.13,13.13,0,0,0,3.79,2.44A19.26,19.26,0,0,0,198.57,233.14Z" style="fill: rgb(38, 50, 56); transform-origin: 192.396347px 223.209251px;" id="el65apdggtf94" class="animable"></path><path d="M221.88,234a83.32,83.32,0,0,1-.24-9.22,82.49,82.49,0,0,1,.28-9.21,83.06,83.06,0,0,1,.24,9.21A80,80,0,0,1,221.88,234Z" style="fill: rgb(38, 50, 56); transform-origin: 221.900047px 224.784996px;" id="elp0vhg9qx7ld" class="animable"></path><path d="M185.2,213.3c.11-2.23.34-4.75.34-4.75s5.52-.61,5.85-6.31,0-18.85,0-18.85l-10-5.12L170.29,187,172,215.5l10.18.65A2.94,2.94,0,0,0,185.2,213.3Z" style="fill: rgb(255, 190, 157); transform-origin: 180.913315px 197.210571px;" id="el09ngzevtwarv" class="animable"></path><path d="M186.19,197.73s0,.11-.09.24a.74.74,0,0,1-.63.28c-.64,0-1.26-.74-1.48-1.6a2.61,2.61,0,0,1,0-1.27,1.1,1.1,0,0,1,.6-.86.55.55,0,0,1,.42,0,.51.51,0,0,1,.23.23c.07.17,0,.28,0,.27s0-.1-.1-.2a.36.36,0,0,0-.47-.1.85.85,0,0,0-.41.71,2.56,2.56,0,0,0,0,1.13c.2.78.74,1.41,1.22,1.47a.69.69,0,0,0,.53-.15C186.13,197.8,186.17,197.72,186.19,197.73Z" style="fill: rgb(235, 153, 110); transform-origin: 185.050804px 196.364983px;" id="elhaqv5dwqle" class="animable"></path><path d="M194.82,180.31c-.77-2.62-3.56-3.92-6.1-4.64-3.87-1.1-8.05-1.58-11.83-.19s-8.32,3.83-8.32,8c-2.23-.18-3.51,1.77-4.39,4.19a15.7,15.7,0,0,0-1,4.6h0c-.28,5.46-1.81,13-5.35,17-2,2.23-4.77,3.77-5.91,6.55-1,2.41-.48,5.27-1.41,7.71-.83,2.15-2.66,3.68-4,5.55a14.88,14.88,0,0,0-.95,14.39,18.22,18.22,0,0,0,10.89,9.4,25.47,25.47,0,0,0,14.35.14,24,24,0,0,0,9.62-4.77A16.06,16.06,0,0,0,186,239c.71-4.08-.43-8.23-1.28-12.29-2.66-12.83-1.9-13.5,1.46-25.41.08-.21.12-.43.18-.64s.09-.31.13-.47h0a7.54,7.54,0,0,0,.15-1.43,2.75,2.75,0,0,1-2.89-.62,3,3,0,0,1-.68-3,4.36,4.36,0,0,1,2.58-2.43c1.11-.46,2.3-.7,3.39-1.21,2.31-1.1,3.91-3.38,5-5.77A7.92,7.92,0,0,0,194.82,180.31Z" style="fill: rgb(38, 50, 56); transform-origin: 169.568474px 214.298744px;" id="el3ix42wpmpsp" class="animable"></path><path d="M186.59,198a4.89,4.89,0,0,1,.52,1c.3.63.7,1.52,1.14,2.55l.08.19-.21,0-1,.09c-.69,0-1.27.13-1.95.12a.36.36,0,0,1-.26-.23.45.45,0,0,1,0-.28,4,4,0,0,1,.09-.4l.18-.71a6.77,6.77,0,0,1,.42-1.38,6.75,6.75,0,0,1-.21,1.43l-.14.71c-.05.24-.14.61,0,.58.5,0,1.21-.11,1.87-.15l1-.09-.13.22c-.43-1-.79-1.94-1-2.59A3.9,3.9,0,0,1,186.59,198Z" style="fill: rgb(31, 198, 79); transform-origin: 186.608841px 199.975273px;" id="el29oli7ewgan" class="animable"></path><path d="M152.35,282.17l44.35-1.35L216,356.16l-3.55,86.42H189L191.87,358l-17.15-52.45,2.64,140.38-23.7.35-2.49-131.95c-.11-3.67-1.31-11.94-.86-15.58Z" style="fill: rgb(38, 50, 56); transform-origin: 183.104729px 363.550003px;" id="el1phsuzikete" class="animable"></path><path d="M180.62,306.62a8.88,8.88,0,0,1-2.17-.13c-1.34-.16-3.17-.44-5.18-.84s-3.81-.86-5.11-1.23a8.25,8.25,0,0,1-2-.72c0-.15,3.26.63,7.26,1.44S180.64,306.47,180.62,306.62Z" style="fill: rgb(69, 90, 100); transform-origin: 173.390053px 305.159409px;" id="eldvy453cbst8" class="animable"></path><path d="M212.21,437.84c0,.14-5.31.26-11.86.26s-11.87-.12-11.87-.26,5.31-.26,11.87-.26S212.21,437.69,212.21,437.84Z" style="fill: rgb(69, 90, 100); transform-origin: 200.345009px 437.839996px;" id="elrisyiht53c" class="animable"></path><path d="M177.15,442.28c0,.15-5.16.26-11.52.26s-11.51-.11-11.51-.26,5.16-.26,11.51-.26S177.15,442.14,177.15,442.28Z" style="fill: rgb(69, 90, 100); transform-origin: 165.634995px 442.279999px;" id="elpotgf5pgs29" class="animable"></path><path d="M174.09,441.92c-.14,0-.76-30.67-1.39-68.5s-1-68.52-.87-68.52.77,30.66,1.39,68.51S174.24,441.92,174.09,441.92Z" style="fill: rgb(69, 90, 100); transform-origin: 172.962845px 373.410019px;" id="ellhbsevudkkn" class="animable"></path><path d="M209.06,437.84a2.56,2.56,0,0,1,0-.41l0-1.2c0-1.08.08-2.63.14-4.6.14-4,.34-9.81.59-16.93.54-14.32,1.3-34.06,2.13-55.85,0-.21,0-.41,0-.59v.07c-5.25-21-10-40.06-13.45-53.85l-4-16.31c-.46-1.91-.81-3.4-1.06-4.44-.12-.49-.2-.87-.27-1.16a1.73,1.73,0,0,1-.07-.4,2.21,2.21,0,0,1,.12.39c.08.28.18.66.32,1.14.27,1,.66,2.52,1.16,4.42,1,3.86,2.41,9.42,4.17,16.27,3.48,13.78,8.28,32.79,13.6,53.82v.07c0,.18,0,.39,0,.59-.89,21.79-1.7,41.52-2.29,55.84-.31,7.13-.57,12.9-.75,16.92-.1,2-.18,3.52-.23,4.6,0,.51-.06.91-.07,1.2A1.91,1.91,0,0,1,209.06,437.84Z" style="fill: rgb(69, 90, 100); transform-origin: 202.755005px 360.00499px;" id="elo6b142r1k7" class="animable"></path><path d="M201.41,356.5a26.79,26.79,0,0,1-5.18,1.15c-2.16.37-4,.63-4.83.67v-.2c.27.08.41.13.41.17s-.17,0-.45,0l-.6,0,.6-.18c.78-.23,2.62-.61,4.78-1A27,27,0,0,1,201.41,356.5Z" style="fill: rgb(69, 90, 100); transform-origin: 196.085007px 357.410004px;" id="elogmsp112nge" class="animable"></path><path d="M201,359.37a25.8,25.8,0,0,1-4.67-.21,26.38,26.38,0,0,1-4.65-.51,29.61,29.61,0,0,1,9.32.72Z" style="fill: rgb(69, 90, 100); transform-origin: 196.340004px 358.974457px;" id="el71f5wtyage3" class="animable"></path><g id="elh9u7xzdm1gd"><path d="M152.16,283.76a6.08,6.08,0,0,0,4.38,2.33,19.73,19.73,0,0,0,5.37-.1c11.45-1.27,23.58-2.44,34.79-5.17-14.51.81-29.84.54-44.35,1.35l-.15,1.24" style="opacity: 0.2; transform-origin: 174.430008px 283.523483px;" class="animable"></path></g><g id="elc65sasciac5"><g style="opacity: 0.2; transform-origin: 171.199997px 320.080002px;" class="animable"><polygon points="167.11 304.21 175.29 335.95 174.72 305.55 167.11 304.21" id="el5bhrqqnydo8" style="transform-origin: 171.199997px 320.080002px;" class="animable"></polygon></g></g></g><defs>     <filter id="active" height="200%">         <feMorphology in="SourceAlpha" result="DILATED" operator="dilate" radius="2"></feMorphology>                <feFlood flood-color="#32DFEC" flood-opacity="1" result="PINK"></feFlood>        <feComposite in="PINK" in2="DILATED" operator="in" result="OUTLINE"></feComposite>        <feMerge>            <feMergeNode in="OUTLINE"></feMergeNode>            <feMergeNode in="SourceGraphic"></feMergeNode>        </feMerge>    </filter>    <filter id="hover" height="200%">        <feMorphology in="SourceAlpha" result="DILATED" operator="dilate" radius="2"></feMorphology>                <feFlood flood-color="#ff0000" flood-opacity="0.5" result="PINK"></feFlood>        <feComposite in="PINK" in2="DILATED" operator="in" result="OUTLINE"></feComposite>        <feMerge>            <feMergeNode in="OUTLINE"></feMergeNode>            <feMergeNode in="SourceGraphic"></feMergeNode>        </feMerge>            <feColorMatrix type="matrix" values="0   0   0   0   0                0   1   0   0   0                0   0   0   0   0                0   0   0   1   0 "></feColorMatrix>    </filter></defs></svg>